<svg width="70" height="70" viewBox="0 0 70 70" fill="none" xmlns="http://www.w3.org/2000/svg">
<circle opacity="0.5" cx="35" cy="35" r="35" fill="#E9EBFF"/>
<path d="M19.4445 20.1914C19.4445 19.0868 20.3399 18.1914 21.4445 18.1914H40.1852L50.5556 29.1067V52.5756C50.5556 53.6802 49.6601 54.5756 48.5556 54.5756H21.4445C20.3399 54.5756 19.4445 53.6802 19.4445 52.5756V20.1914Z" fill="#28328C"/>
<path fill-rule="evenodd" clip-rule="evenodd" d="M29.0048 24.0391C29.0048 23.6248 28.669 23.2891 28.2548 23.2891H28.0321C27.6179 23.2891 27.2821 23.6248 27.2821 24.0391V25.9256H25.3796C24.9654 25.9256 24.6296 26.2614 24.6296 26.6756V26.9333C24.6296 27.3475 24.9654 27.6833 25.3796 27.6833H27.2821V29.5698C27.2821 29.984 27.6179 30.3198 28.0321 30.3198H28.2548C28.669 30.3198 29.0048 29.984 29.0048 29.5698V27.6833H30.7932C31.2074 27.6833 31.5432 27.3475 31.5432 26.9333V26.6756C31.5432 26.2614 31.2074 25.9256 30.7932 25.9256H29.0048V24.0391Z" fill="white"/>
<path d="M25.4186 39.2089H42.7025" stroke="white" stroke-width="1.5" stroke-linecap="round"/>
<path d="M25.4186 45.6562H35.789" stroke="white" stroke-width="1.5" stroke-linecap="round"/>
<path d="M58.7466 22.9025C58.7466 28.7539 54.0861 33.4714 48.3688 33.4714C42.6516 33.4714 37.9911 28.7539 37.9911 22.9025C37.9911 17.0511 42.6516 12.3336 48.3688 12.3336C54.0861 12.3336 58.7466 17.0511 58.7466 22.9025Z" fill="#00A557" stroke="#00A557" stroke-width="1.8"/>
<path d="M52.8926 19.7754L46.5562 26.2186L43.6984 23.0074" stroke="white" stroke-width="1.5" stroke-linecap="round" stroke-linejoin="round"/>
</svg>
