<svg width="70" height="70" viewBox="0 0 70 70" fill="none" xmlns="http://www.w3.org/2000/svg">
<circle opacity="0.5" cx="35" cy="35" r="35" fill="#E9EBFF"/>
<path d="M19.2766 25.6262C19.2766 24.2442 18.737 22.9186 17.776 21.94C16.8151 20.9614 15.5113 20.4097 14.1504 20.4059C15.5113 20.402 16.8151 19.8503 17.776 18.8717C18.737 17.8932 19.2766 16.5676 19.2766 15.1855C19.2766 16.5701 19.8181 17.8979 20.7822 18.8769C21.7462 19.8559 23.0537 20.4059 24.4171 20.4059C23.0537 20.4059 21.7462 20.9559 20.7822 21.9349C19.8181 22.9139 19.2766 24.2417 19.2766 25.6262Z" fill="#118A10"/>
<path d="M24.8852 28.4743C24.8844 27.8451 24.638 27.2419 24.2002 26.7973C23.7625 26.3526 23.1691 26.1029 22.5504 26.1029C23.1693 26.1021 23.7628 25.8517 24.2005 25.4066C24.6381 24.9615 24.8844 24.358 24.8852 23.7285C24.8852 24.3577 25.1308 24.9612 25.568 25.4064C26.0052 25.8516 26.5983 26.1021 27.217 26.1029C26.5986 26.1029 26.0055 26.3527 25.5682 26.7975C25.1308 27.2422 24.8852 27.8453 24.8852 28.4743Z" fill="#118A10"/>
<path d="M24.4182 18.0329C24.4176 17.5296 24.2205 17.047 23.8703 16.6913C23.52 16.3356 23.0453 16.1358 22.5504 16.1358C23.0455 16.1352 23.5203 15.9349 23.8704 15.5788C24.2206 15.2227 24.4176 14.7399 24.4182 14.2363C24.4182 14.7397 24.6147 15.2225 24.9645 15.5786C25.3143 15.9348 25.7887 16.1352 26.2837 16.1358C25.7889 16.1358 25.3144 16.3357 24.9646 16.6915C24.6147 17.0473 24.4182 17.5298 24.4182 18.0329Z" fill="#118A10"/>
<path d="M36.1665 48.2776L27.9009 52.5412C27.0389 52.9858 25.9858 52.6356 25.5486 51.7591C25.3824 51.4259 25.3235 51.0479 25.3803 50.6788L26.8134 41.367L20.2719 34.6902C19.5897 33.9939 19.5918 32.8671 20.2764 32.1734C20.5367 31.9097 20.8719 31.736 21.2347 31.6769L30.386 30.1854L34.6087 21.7954C35.0491 20.9204 36.1035 20.5742 36.9639 21.022C37.2909 21.1922 37.5569 21.4628 37.7243 21.7954L41.9471 30.1854L51.0984 31.6769C52.0527 31.8324 52.7024 32.7452 52.5494 33.7157C52.4913 34.0846 52.3205 34.4256 52.0612 34.6902L45.5197 41.367L46.9527 50.6788C47.1022 51.6499 46.4492 52.5603 45.4944 52.7123C45.1314 52.77 44.7598 52.7102 44.4322 52.5412L36.1665 48.2776Z" fill="#28328C"/>
</svg>
