<?xml version="1.0" encoding="UTF-8"?>
<svg width="24px" height="24px" viewBox="0 0 24 24" version="1.1" xmlns="http://www.w3.org/2000/svg" xmlns:xlink="http://www.w3.org/1999/xlink">
    <!-- Generator: Sketch 51.3 (57544) - http://www.bohemiancoding.com/sketch -->
    <title>ic_accreditation</title>
    <desc>Created with Sketch.</desc>
    <defs>
        <linearGradient x1="50%" y1="0%" x2="50%" y2="100%" id="linearGradient-1">
            <stop stop-color="#FFFFFF" stop-opacity="0.309386322" offset="0%"></stop>
            <stop stop-color="#000000" stop-opacity="0.5" offset="100%"></stop>
        </linearGradient>
        <path d="M9.4296448,12.7792758 C9.45526458,12.6205819 9.47842801,12.4758919 9.50200902,12.3312786 C9.60254762,11.7149534 9.70320905,11.0986282 9.80379678,10.482303 C9.82020523,10.3816691 9.83965956,10.2814185 9.85110617,10.1801713 C9.85427487,10.1520613 9.84196853,10.1122217 9.8227844,10.0925958 C9.40095457,9.6615157 8.97718423,9.23250552 8.55378233,8.80311203 C8.39994083,8.64712692 8.24590281,8.49137179 8.09230694,8.33508002 C8.01682315,8.25828853 7.97791449,8.168132 8.01306493,8.05824733 C8.04936985,7.94481058 8.13256659,7.89188706 8.24263586,7.87545547 C9.00764303,7.76132875 9.77223262,7.64418658 10.5378784,7.535043 C10.6403084,7.52042579 10.6938078,7.48227281 10.7396926,7.38462878 C11.0897477,6.63978964 11.4471473,5.89865591 11.8012063,5.15583558 C11.8429398,5.06826006 11.8964392,5.00202261 11.998599,5.0000549 C12.0840802,4.99839386 12.1500087,5.03437469 12.1888683,5.1145905 C12.2762408,5.29495468 12.3621887,5.47603438 12.4482348,5.65708853 C12.7362178,6.26311523 13.0237833,6.86937193 13.3129945,7.47478532 C13.3218865,7.49338905 13.3457132,7.51324495 13.3648973,7.51620928 C13.9290975,7.60327371 14.4936169,7.6881149 15.0580382,7.77372272 C15.2967467,7.80990799 15.5352834,7.84737099 15.7739919,7.88360738 C15.8815311,7.89996231 15.956057,7.9605522 15.9883335,8.06737031 C16.0195046,8.1706619 15.9860982,8.26010291 15.9133164,8.33403229 C15.55911,8.693994 15.2046334,9.05364906 14.8501077,9.41325302 C14.6259899,9.64061205 14.4023388,9.86848218 14.1764524,10.0939246 C14.1455023,10.1247946 14.1468533,10.1550256 14.152724,10.1909809 C14.2195123,10.599803 14.2861778,11.0086506 14.3530152,11.4174471 C14.4239547,11.8514148 14.4953118,12.2853059 14.5659812,12.7193248 C14.5812842,12.8133656 14.5541415,12.8915371 14.4800333,12.9500826 C14.4013071,13.0122824 14.318749,13.0143268 14.2328994,12.967383 C13.9163244,12.7943275 13.5997003,12.6214252 13.2831252,12.4483441 C12.8724964,12.2238472 12.4616465,11.9998102 12.0518037,11.7737545 C12.0146881,11.7532853 11.9871278,11.7550485 11.9511422,11.7748278 C11.2320935,12.1701826 10.5123815,12.5643108 9.79284144,12.9586945 C9.65828231,13.032445 9.53450659,13.0068649 9.46649012,12.8865284 C9.44656909,12.8513142 9.43929827,12.8083569 9.4296448,12.7792758" id="path-2"></path>
    </defs>
    <g id="Page-1" stroke="none" stroke-width="1" fill="none" fill-rule="evenodd">
        <g id="Dweb_test_detail_page" transform="translate(-350.000000, -312.000000)">
            <g id="ic_accreditation" transform="translate(350.000000, 312.000000)">
                <rect id="Rectangle-9" fill="#FFFFFF" x="0" y="0" width="24" height="24"></rect>
                <polygon id="Mask" fill="#14BEF0" points="7 10 17 10 17 23 12 20.8247532 7 23"></polygon>
                <circle id="Mask" stroke="#28328C" stroke-width="2" fill="#4451C8" cx="12" cy="9" r="8"></circle>
                <g id="Fill-1">
                    <use fill="#FFFFFF" xlink:href="#path-2"></use>
                    <use fill-opacity="0.5" fill="url(#linearGradient-1)" style="mix-blend-mode: overlay;" xlink:href="#path-2"></use>
                </g>
            </g>
        </g>
    </g>
</svg>