<svg xmlns="http://www.w3.org/2000/svg" width="20" height="20" viewBox="0 0 20 20">
    <path fill="#787887" fill-rule="nonzero" d="M4.25 2.5H3a.5.5 0 0 0-.5.5v14a.5.5 0 0 0 .5.5h14a.5.5 0 0 0 .5-.5V3a.5.5 0 0 0-.5-.5h-1.25v1.125a.75.75 0 1 1-1.5 0V2.5h-8.5v1.125a.75.75 0 0 1-1.5 0V2.5zM5.75 1h8.5a.75.75 0 1 1 1.5 0H17a2 2 0 0 1 2 2v14a2 2 0 0 1-2 2H3a2 2 0 0 1-2-2V3a2 2 0 0 1 2-2h1.25a.75.75 0 0 1 1.5 0zM5 7.25a.75.75 0 0 1 0-1.5h10a.75.75 0 1 1 0 1.5H5zm8.5 8.25a2 2 0 1 1 0-4 2 2 0 0 1 0 4zm0-1a1 1 0 1 0 0-2 1 1 0 0 0 0 2z"/>
</svg>
